<svg data-name="Layer 1" xmlns="http://www.w3.org/2000/svg" width="865.76" height="682.89">
    <path fill="#ccc" d="M94.23 213.25h544.48v401.03H94.23z" />
    <path opacity=".2"
        d="M216.93 469.87h60.66v56.66h-60.66zM287.37 469.87h60.66v56.66h-60.66zM146.03 469.87h60.66v56.66h-60.66z" />
    <path fill="#ccc" d="M94.23 170.38h544.48v19.38H94.23zM94.23 189.76h544.48v23.9H94.23z" />
    <path opacity=".2" d="M94.23 189.76h544.48v23.9H94.23z" />
    <circle cx="121.91" cy="181.37" r="4.04" opacity=".2" />
    <circle cx="135.99" cy="181.37" r="4.04" opacity=".2" />
    <circle cx="150.08" cy="181.37" r="4.04" opacity=".2" />
    <path opacity=".2"
        d="M146.03 233.19h15.89v15.89h-15.89zM166.9 233.19h15.89v15.89H166.9zM187.95 233.19h15.89v15.89h-15.89zM209 233.19h15.89v15.89H209zM146.03 255h187.54v9.57H146.03zM146.03 272.99h187.54v9.57H146.03zM146.03 297h104.34v4.78H146.03zM262.71 297h70.87v64.66h-70.87zM146.03 305.29h104.34v4.78H146.03zM146.03 313.58h104.34v4.78H146.03zM146.03 321.87h104.34v4.78H146.03zM146.03 330.16h104.34v4.78H146.03zM146.03 338.45h104.34v4.78H146.03zM146.03 346.74h104.34v4.78H146.03zM146.03 355.03h104.34v4.78H146.03z" />
    <path fill="#bcbec0" d="M281.65 321.87h16.49v16.49h-16.49z" />
    <circle cx="297.51" cy="322.55" r="7.61" fill="#a7a9ac" />
    <path fill="#2f2e41" d="M300.84 340.84h13.57l-6.79-14.18-6.78 14.18z" />
    <path fill="#bcbec0" d="M158.46 492.19h16.49v16.49h-16.49z" />
    <circle cx="174.32" cy="492.86" r="7.61" fill="#a7a9ac" />
    <path fill="#2f2e41" d="M177.64 511.16h13.58l-6.79-14.19-6.79 14.19z" />
    <path fill="#bcbec0" d="M231.4 489.91h16.49v16.49H231.4z" />
    <circle cx="247.26" cy="490.59" r="7.61" fill="#a7a9ac" />
    <path fill="#2f2e41" d="M250.59 508.89h13.57l-6.79-14.19-6.78 14.19z" />
    <path fill="#bcbec0" d="M301.32 492.19h16.49v16.49h-16.49z" />
    <circle cx="317.18" cy="492.86" r="7.61" fill="#a7a9ac" />
    <path fill="#2f2e41" d="M320.5 511.16h13.58l-6.79-14.19-6.79 14.19zM146.03 376.42h189.72v79.88H146.03z" />
    <path fill="#ccc" d="M152.07 383.11h177.66v67.88H152.07z" />
    <path
        d="M146.03 532.14h60.66v1.38h-60.66zM146.03 537.12h60.66v1.38h-60.66zM146.03 542.09h60.66v1.38h-60.66zM146.03 547.07h60.66v1.38h-60.66zM146.03 552.04h60.66v1.38h-60.66zM146.03 557.02h60.66v1.38h-60.66zM146.03 561.99h60.66v1.38h-60.66zM146.03 566.97h60.66v1.38h-60.66zM216.93 532.14h60.66v1.38h-60.66zM216.93 537.12h60.66v1.38h-60.66zM216.93 542.09h60.66v1.38h-60.66zM216.93 547.07h60.66v1.38h-60.66zM216.93 552.04h60.66v1.38h-60.66zM216.93 557.02h60.66v1.38h-60.66zM216.93 561.99h60.66v1.38h-60.66zM216.93 566.97h60.66v1.38h-60.66zM287.37 532.14h60.66v1.38h-60.66zM287.37 537.12h60.66v1.38h-60.66zM287.37 542.09h60.66v1.38h-60.66zM287.37 547.07h60.66v1.38h-60.66zM287.37 552.04h60.66v1.38h-60.66zM287.37 557.02h60.66v1.38h-60.66zM287.37 561.99h60.66v1.38h-60.66zM287.37 566.97h60.66v1.38h-60.66zM374.41 233.19h231.4v177.27h-231.4z"
        opacity=".2" />
    <path fill="#bcbec0" d="M374.41 394.72h231.4v15.74h-231.4z" />
    <path fill="#fff" d="M348.03 272.99h192.74v26.11H348.03z" />
    <path
        d="M445.43 287.11c-20.5 0-35.57-.13-36.1-.51l.41-.56.22-.64c2.77.65 87.41.19 119.79 0v1.38c-24.68.13-58.75.33-84.32.33z"
        fill="#2f2e41" />
    <path
        d="M376.46 286.82c-13.22 0-13.44-.2-13.61-.34l.91-1-.45.52.18-.66c1.33.25 26.74.12 43.49 0v1.38c-14.35.05-23.98.1-30.52.1z"
        fill="#ccc" />
    <!-- <path fill="#2f2e41" d="M405.8 281.39h5.71v8.26h-5.71z" /> -->
    <!-- <rect x="293.46" y="113.37" width="171.17" height="14.76" rx="5.36" fill="#2f2e41" />
    <rect x="273.39" y="134.02" width="211.31" height="36.36" rx="13.2" fill="#2f2e41" />
    <rect x="277.52" y="136.98" width="202.45" height="30.1" rx="10.93" opacity=".2" />
    <circle cx="296.8" cy="152.32" r="11.41" fill="#fff" />
    <circle cx="323.36" cy="152.03" r="11.41" fill="#fff" />
    <circle cx="351.7" cy="152.03" r="11.41" fill="#fff" />
    <circle cx="379.04" cy="152.32" r="11.41" fill="#fff" />
    <circle cx="406.39" cy="152.03" r="11.41" fill="#fff" />
    <circle cx="433.94" cy="152.32" r="11.41" fill="#fff" />
    <circle cx="462.46" cy="152.32" r="11.41" fill="#fff" /> -->
    <!-- <path fill="#2f2e41" d="M432.35 255.2l-4.23-34.11 5.82-.89 4.52 33.84-6.11 1.16z" />
    <path
        d="M418.89 273s-.19-13.79 11.23-19c7.84-3.58 17.3-1.78 22.7 4.94 2.52 3.13 4.46 7.63 4.43 14.06 0 0-.29 10.27-7.38 12.53v9.05h-5.47v-23.32h2.52v6.51s2.77-1.46 2.84-5.94a12.14 12.14 0 00-12.38-12.24 10.91 10.91 0 00-7.87 3.7s-2.95 1.59-2.95 10.09z"
        fill="#2f2e41" />
    <path opacity=".2"
        d="M374.41 421.84h20.38v16.55h-20.38zM400.38 421.84h20.38v16.55h-20.38zM374.41 446.64h20.38v16.55h-20.38zM400.38 446.64h20.38v16.55h-20.38zM374.41 473.36h20.38v16.55h-20.38zM400.38 473.36h20.38v16.55h-20.38zM374.41 506.4h231.4v4.76h-231.4zM374.41 517.06h231.4v4.76h-231.4zM374.41 532.14h231.4v1.38h-231.4zM374.41 537.12h231.4v1.38h-231.4zM374.41 542.09h231.4v1.38h-231.4zM374.41 547.07h231.4v1.38h-231.4zM374.41 552.04h231.4v1.38h-231.4zM374.41 557.02h231.4v1.38h-231.4zM374.41 561.99h231.4v1.38h-231.4zM374.41 566.97h231.4v1.38h-231.4z" />
    <path d="M86.49 606l.6 45.89 60.42-.62c5.11-22.33-31.68-16.08-31.68-16.08l.89-29.42z" fill="#2f2e41" />
    <path d="M86.49 606l.6 45.89 60.42-.62c5.11-22.33-31.68-16.08-31.68-16.08l.89-29.42z" opacity=".2" />
    <path d="M50.4 606l.6 45.93 60.43-.62c1.47-16.62-31.68-16.08-31.68-16.08l.91-29.42z" fill="#2f2e41" />
    <path d="M138.93 394c1.28 4.38-6.81 81.48-6.89 97.25s-7.51 118.44-7.51 118.44l-8.44 15.25-29.6.52 5.89-246.19z"
        fill="#0071f2" />
    <path
        d="M61 347s-26.38 29.61-27.26 50.17 6.57 116 6.57 116l4.39 89.73 5.9 20.29h30l6.4-8.8s8.36-72.91 10.13-103.57 8.48-117.06 8.48-117.06zM184.65 311.52l6.21 45.55s21 3.43 22 4.13-3.68 16.52-3.68 16.52a308 308 0 01-31.11 4.55 14.3 14.3 0 01-15.36-13.15v-.8l-.83-36.17z"
        fill="#0071f2" />
    <path
        d="M184.65 311.52l6.21 45.55s21 3.43 22 4.13-3.68 16.52-3.68 16.52a308 308 0 01-31.11 4.55 14.3 14.3 0 01-15.36-13.15v-.8l-.83-36.17z"
        opacity=".1" />
    <path d="M197 454a28.77 28.77 0 01-4.23 7.94 14.66 14.66 0 011.8-4.14A14.3 14.3 0 01197 454z" fill="#263238" />
    <path
        d="M172.17 361.27L157.3 374.9l-33.47 31.43-59.56-34.25s-4-21.93-3.71-24.09 14.77-19.49 24.34-28.44 29.1-26.81 29.1-26.81 13.77-13.23 31.67-12.61h16.23l22.79 26.67-2.15 31z"
        fill="#0071f2" />
    <path
        d="M199.21 355.92l12.93 3.82s15.44.56 16.87 1.28c1.67.84 11.34 10.88 11.34 10.88l-.31 5.36h-10.81s2.66 7 .24 8.37-5.28-.76-5.28-.76L213 377.26l-12.15 2.05s-5.92-5-5.47-11.65a26.42 26.42 0 013.83-11.74z"
        fill="#f5f5f5" /> -->
    <!-- <path
        d="M183.12 447.58a45 45 0 016.49 4.59 44.21 44.21 0 016 5.15 44.4 44.4 0 01-6.48-4.59 44.3 44.3 0 01-6.01-5.15z"
        fill="#263238" />
    <path d="M248.47 251.89l-.15-19a9 9 0 00-4.13-7.46l-18.68-12.18a9 9 0 00-8.51-.71l-18.77 8.26z" fill="#f5f5f5" />
    <path
        d="M177.2 208.05a262 262 0 0137.34 20.07c20.43 13.2 35.38 22.77 54.27 44.07 4.86 6.47 5.76 8.91 3.4 12.16s-7.49 4.87-11.5 4.67a32.75 32.75 0 01-11.47-3.43c-30.09-13.6-56.37-34.43-80.35-57.14-3.44-3.27-10.15-12-8.34-16.39 2.22-5.47 10.12-6.94 16.65-4.01z"
        fill="#ccc" />
    <path
        d="M177.2 208.05a262 262 0 0137.34 20.07c20.43 13.2 35.38 22.77 54.27 44.07 4.86 6.47 5.76 8.91 3.4 12.16s-7.49 4.87-11.5 4.67a32.75 32.75 0 01-11.47-3.43c-30.09-13.6-56.37-34.43-80.35-57.14-3.44-3.27-10.15-12-8.34-16.39 2.22-5.47 10.12-6.94 16.65-4.01z"
        fill="#fff" opacity=".2" />
    <path
        d="M241.76 259.36c2.61-5 4.14-6.22 2.33-11.58-2-5.91-12.48-10.26-17.81-13.49s-10.13-8.65-16.22-10c-3.42-.76-3.44-3.12-6.89-2.56-6.29 1-14.73 4.39-19.28 8.84-3.72 3.58-11 14.42-12.53 19.35a11.62 11.62 0 00.63 6.62 44.06 44.06 0 00-1.53 15.37l9.65-5.23z"
        fill="#263238" />
    <path
        d="M170.88 239.27c5.82-5.51 7-9.13 20.53-14.51 10.18-4 15.26 1.65 22.89 4L237 246c.2-.5.39-1 .56-1.47l6.32 8.15a8 8 0 012.92 8.7 10.78 10.78 0 01-.47 2.76 26.47 26.47 0 01-4.34 7.67 67.65 67.65 0 01-5.63 6.68l-1.89 2.29a13.92 13.92 0 01-2.86 2.5c-8.84 8.5-15.52 20.5-21.54 28.84-.63.88-5.19-1.58-6.2-1.22a5.12 5.12 0 01-3.36-.31c-13.27-4.49-14.68-15.9-19.28-29.15-.89-2.58-1.64-5.39-3.68-7.21s-9.11 1.82-11.81.82l-2.87-8.13c.01-14.87 2.13-22.22 8.01-27.65z"
        fill="#2f2e41" />
    <path
        d="M193.51 236.37a17.36 17.36 0 0120.41-3l21.27 11.4c8.19 6 4.77 19.77-1.61 27.68-7.06 8.81-14.77 17.91-21.43 23.2-13.37 10.67-24.4 3.52-24.4 3.52l-5.51 6-12.4-12.7L157.11 282l36.24-45.45c.17-.3-.12.08.16-.18z"
        fill="#f9b499" />
    <path d="M175.28 279.62s-3.8 12.29 9.78 22.52l2.69-2.93a42.67 42.67 0 01-12.47-19.59z" fill="#f4a790" />
    <path
        d="M240.63 258a7.43 7.43 0 00-2-7.55 14.39 14.39 0 00-7.29-3.59c-11.36-2.51-24.68 4.35-36.08 2.07-2.76-.56-4.23-3.71-7.09-3.67s-6 1.38-6.89 4.13a23.89 23.89 0 011.38-6.63 7.94 7.94 0 014.65-4.67c1.64-.53 3.54-.33 5-1.28s1.88-2.37 3-3.45a9.89 9.89 0 014.13-2.13c7.52-2.44 12.71-3.69 20.43-1.89 5 1.19 11 6.8 14.68 10.43s8 5.51 8.45 10.73c.24 3 .51 6.19-2.24 7.49"
        fill="#2f2e41" />
    <path d="M186.94 247c.19-.48-4.14-8.79-10.58-2s1.75 11.53 1.94 11.35 8.64-9.35 8.64-9.35z" fill="#f9b499" />
    <path d="M176.74 252.41a1.86 1.86 0 00-2.42-.43 1.9 1.9 0 00-.56 2.4 1.79 1.79 0 003.24-1.58" fill="#fff" />
    <path
        d="M177 252.8a2.39 2.39 0 01-.23 1.46 1.56 1.56 0 01-1.22.81 1.75 1.75 0 01-1.58-.8 1.71 1.71 0 01.12-1.76 1.56 1.56 0 011.38-.65 2.31 2.31 0 011.37.55.55.55 0 00-.24-.37 1.91 1.91 0 00-1.11-.47 1.86 1.86 0 00-1.65.72 2.06 2.06 0 00-.16 2.19 2 2 0 002 1 1.79 1.79 0 001.38-1.06 1.87 1.87 0 00.15-1.19c-.12-.32-.21-.45-.21-.43z"
        fill="#263238" />
    <path
        d="M187.4 244.52a14 14 0 00-4.29 6c-.65 2.4.48 5.51 2.9 6 2 .46 3.9-.87 5.51-2.13 4.56-3.71 8.82-7.76 13.4-11.41z"
        fill="#2f2e41" />
    <path
        d="M273.43 280.38s-26.69-26.17-40-35.35-49.48-31.44-58.94-33.65-13.91.64-13.91.64 2.09-8 13.16-5.1a212.6 212.6 0 0139.94 17.83c25.32 14.37 54.17 36.25 59.75 55.63z"
        fill="#f5f5f5" />
    <path
        d="M155.18 281.39L185.55 310a2.68 2.68 0 003.76-.11 2.66 2.66 0 00-.1-3.76L158.9 277.5a2.66 2.66 0 00-3.76.1 2.66 2.66 0 000 3.76z"
        fill="#d1d4d5" />
    <path d="M752.11 313.57l-1.72-5.82a15.85 15.85 0 001.72 5.82z" fill="#455a64" /> -->
    <!-- <path
        d="M827.52 382.5c-6.89-13-20.26-20.95-32.18-29.59-10.42-7.54-36.27-25.2-43.23-39.34L789.53 440a39.23 39.23 0 0038-57.45z"
        fill="#d1d3d4" />
    <path d="M710 618.32l-.28 42.68H656.5c-2.37-25.73 27.85-15.27 27.85-15.27l-1-27.41z" fill="#0071f2" />
    <path
        d="M700.84 643.54a2.17 2.17 0 011.5 2.48 2.1 2.1 0 01-2.45 1.51 2.28 2.28 0 01-1.57-2.63 2.16 2.16 0 012.75-1.29M709.75 661.14l-.15-4.31-51 1.58s-2.37 1-2.11 2.76z"
        fill="#fff" opacity=".6" />
    <path
        d="M685.26 633a5 5 0 002.66 0 12 12 0 002.75-.86 11.19 11.19 0 001.53-.81 3.06 3.06 0 00.81-.62 1.16 1.16 0 00.11-1.38 1.35 1.35 0 00-1.12-.59 3.85 3.85 0 00-1 .14 9.33 9.33 0 00-4.13 2.18c-1.23 1.14-1.65 2.12-1.57 2.16s.73-.73 2-1.67a10.79 10.79 0 012.37-1.38 8.5 8.5 0 011.54-.46c.55-.16 1-.16 1.19.09s0 .14 0 .31a3.21 3.21 0 01-.58.45c-.48.3-.95.56-1.38.8a17 17 0 01-2.57 1 17.4 17.4 0 00-2.61.64z"
        fill="#263238" />
    <path
        d="M685.61 633.36a4.43 4.43 0 00.7-2.58 8.78 8.78 0 00-.37-2.92 8.45 8.45 0 00-.68-1.61 2.16 2.16 0 00-1.69-1.37 1.22 1.22 0 00-1.12.74 3.32 3.32 0 00-.27 1 6 6 0 000 1.79 6.06 6.06 0 001.13 2.75c1 1.38 2.13 1.7 2.14 1.6a11.86 11.86 0 01-1.61-2 6.18 6.18 0 01-.84-2.5 5.6 5.6 0 010-1.53c.1-.57.31-1 .51-1a2 2 0 01.94.87 9.48 9.48 0 01.66 1.45 9.22 9.22 0 01.51 2.66c.11 1.63-.17 2.61-.01 2.65z"
        fill="#263238" /> -->
    <!-- <path d="M678.88 326.35s-9.72 42.69-15 45.11-47.16 6.2-47.16 6.2l-23.27-8.45 50-16.53 11.9-40.68z" fill="#f9b499" />
    <path
        d="M581.24 370.42l-8.79 2.17a1.91 1.91 0 01-1.25-3.59c1.38-.8 7-3.08 9.64-4.32a4.24 4.24 0 013.68-.1l11.67 3 14-4 6.62 13.94-11.32 3.63s-.72 2.32-2.31 2.4-10.93-.14-10.93-.14-6.88 6.89-9 4.27c-1.45-1.76 4.54-7.16 6.25-8 1.17-.55-2.75-.24-2.75-.24s-8 6.23-9.64 3.8 7-8.4 7-8.4-6.41 2.59-9 3.8-2.87-2.06-2-2.75 8.13-5.47 8.13-5.47z"
        fill="#f9b499" />
    <path
        d="M595.13 368.75a12.22 12.22 0 01-1.5.46 10 10 0 01-4.21-.36 27.18 27.18 0 00-3-.59 6.31 6.31 0 00-3.53.53 4.08 4.08 0 00-1.53 1.3 3.14 3.14 0 00.53 4.05 2.53 2.53 0 002.26.38 9.1 9.1 0 011.94-.44 4.12 4.12 0 011.82.36 11.41 11.41 0 013 2.06 13.31 13.31 0 002.85 2 6.82 6.82 0 003 .66 7 7 0 004.13-1.38 4.17 4.17 0 00.88-.8 1.15 1.15 0 00.25-.34 14.05 14.05 0 01-1.28.92 7.25 7.25 0 01-4 1.08 6.94 6.94 0 01-2.75-.69 14.29 14.29 0 01-2.69-2 11.75 11.75 0 00-3.19-2.21 4.71 4.71 0 00-2.09-.41 8.24 8.24 0 00-2.08.46 1.79 1.79 0 01-1.67-.27 2.22 2.22 0 01-.79-1.5 2.76 2.76 0 011.64-2.75c2.1-1 4.34-.36 6.11 0a9.32 9.32 0 004.36.14 4.2 4.2 0 001.12-.46c.29-.09.44-.19.42-.2zM586.76 381.64c.17.13 1-.81 2.37-1.38s2.6-.59 2.63-.79a3.18 3.18 0 00-2.91.16c-1.57.65-2.25 1.93-2.09 2.01z"
        fill="#aa6550" />
    <path d="M581.54 377.48a8.51 8.51 0 016.06-2.48c0-.1-.34-.29-1-.37a5.15 5.15 0 00-4.6 1.86c-.42.51-.54.95-.46.99z"
        fill="#aa6550" />
    <path d="M802.33 618.83l8.73 41.87-52 11.13c-5.74-23.57 24-20.77 24-20.77l-6.7-26.6z" fill="#0071f2" />
    <path
        d="M798.66 645.35a2.21 2.21 0 012 2.11 2.09 2.09 0 01-2.07 2 2.28 2.28 0 01-2.09-2.25 2.15 2.15 0 012.38-1.83M811.06 660.7l-1-4.13-49.53 12.23s-2.11 1.51-1.5 3.08z"
        fill="#fff" opacity=".6" />
    <path
        d="M781.21 638.3a5.15 5.15 0 002.61-.58 11.13 11.13 0 002.54-1.37 11.44 11.44 0 001.38-1.12 3 3 0 00.65-.77 1.12 1.12 0 00-.17-1.38 1.37 1.37 0 00-1.24-.34 3.6 3.6 0 00-1 .34 9.17 9.17 0 00-1.5.9 9.72 9.72 0 00-2.06 2.09 4.44 4.44 0 00-1.08 2.45c.13 0 .55-.86 1.59-2a9.67 9.67 0 012-1.8 10.47 10.47 0 011.38-.79c.52-.26 1-.37 1.19-.15s.08.12 0 .3a3 3 0 01-.49.57 13.94 13.94 0 01-3.52 2.59 20.31 20.31 0 00-2.28 1.06z"
        fill="#263238" />
    <path
        d="M781.57 638.59a4.11 4.11 0 00.15-2.66 8.75 8.75 0 00-1-2.75 9 9 0 00-1-1.38 2.22 2.22 0 00-1.94-.95 1.25 1.25 0 00-.94.95 3.49 3.49 0 000 1 5.54 5.54 0 00.38 1.75 6.25 6.25 0 001.68 2.47 3.46 3.46 0 002.43 1.11 10.48 10.48 0 01-2-1.58 6.17 6.17 0 01-1.33-2.25 5.58 5.58 0 01-.27-1.52c0-.56 0-1.06.29-1a1.85 1.85 0 011.1.66 11.66 11.66 0 011 1.27 10.32 10.32 0 011.06 2.49 16.62 16.62 0 01.39 2.39z"
        fill="#263238" />
    <path
        d="M777.44 369.67s17.16 23.11 16.86 49.86-5 100-5 100l19.78 119.05-34.08 6.25s-29.19-96.41-31-109.14-6.88-91.88-6.88-91.88L724 524l-10.3 111.29h-34.88s1.17-181.48 10-227.52zM773.31 301.45c-1.49-6.37-4.13-12.4-4.86-19-.45-3.8-.25-7.68-1-11.43s-2.76-7.53-6.3-9.09c-3.19-1.37-7.2-.84-10-3-3-2.39-3.2-7.09-5.91-9.85-2.22-2.24-5.65-2.75-8.35-4.36-3.87-2.36-5.84-6.89-7.44-11-4-10.45-7.24-21.28-13.2-30.73s-21.52-27.54-48.57-19.11l-13.52 11.25c-3.94 5.67-4.7 13-3.83 19.9s3.24 13.42 5.07 20.08 3.17 13.66 1.93 20.45c-.07.36-.15.72-.24 1.06a21.54 21.54 0 01-1.24 3.08c-2 4-5.13 7.31-7.46 11.12s-3.83 8.6-2.14 12.74c1.15 2.84 3.7 5.1 4.14 8.13.59 4.06-2.76 7.53-4.14 11.42a12.4 12.4 0 008.5 15.33l.69.17c5.84 1 11.82-2.64 14.83-7.75s3.54-11.36 3-17.27a12.85 12.85 0 00-.18-1.64 25.83 25.83 0 006.24-3.06c4.48-2.92 15.83-2.55 18.13-7.37 1.31-2.75 4.06-7.49 5.84-12l51.24 54c4.67 4.56 13.24 2.26 16.87-3.17s3.44-12.54 1.9-18.9z"
        fill="#2f2e41" />
    <path d="M678.47 338.92L650.93 321s7.23-35.45 13.77-39c5.03-2.76 13.77 56.92 13.77 56.92z" fill="#0071f2" />
    <path
        d="M795 423.19c-2.1-41.81-16.63-51.51-30.05-76L730 255.86l-22 3.29-24.93 8.1L664.73 282a307.33 307.33 0 005.63 43.48s11.83 16 24.29 45.93l-8.11 52.87z"
        fill="#0071f2" />
    <path d="M730 255.86s9.19-2.31 19.86 4.21 21.3 36.09 21.3 36.09L741.05 313s-14.11-51.81-11.05-57.14z"
        fill="#0071f2" />
    <path
        d="M653.34 211.42a18.94 18.94 0 01.49-17.32 24.85 24.85 0 019.81-9.13 26.69 26.69 0 0117.54-3.39c6 1.12 11.53 5.27 13.4 11 .86 2.63 1 5.51 2.39 7.89a6 6 0 011.37 3.24 2.87 2.87 0 01-2 2.37 6.43 6.43 0 01-3.26 0 33.91 33.91 0 01-10.23-4.45"
        fill="#263238" /> -->
    <!-- <path
        d="M664.51 193.46l27.44 1a5 5 0 015.51 4l9.64 57.33a18 18 0 01-1.84 11.46l-2 3.69a13.26 13.26 0 01-22 2.18 5.88 5.88 0 01-.88-1.38 9.29 9.29 0 01-.47-1.24 41.48 41.48 0 01-2-8.59c-1.16-5.06-1.6-7.14-1.59-7.09s-11 .52-16.29-13c-2.59-6.69-4.68-18.15-6.09-27.54-1.35-8.46 1.99-19.91 10.57-20.82z"
        fill="#f9b499" />
    <path d="M676.24 254.81a36.23 36.23 0 0017.6-9s-2.62 10.66-16.86 12.39z" fill="#f4a790" />
    <path
        d="M698.43 222.68c-.22-1 .44-3.73 1.37-4.13 2.66-1 7.65-1.86 9.18 5.1 2.1 9.48-7.85 9.64-7.94 9.37s-1.86-6.74-2.61-10.34z"
        fill="#f9b499" />
    <path
        d="M662.78 192.09a13.32 13.32 0 0010.8 8.27c2.54.26 5.44-.1 7.27 1.68s1.6 5 3.38 6.88c2.45 2.65 7.55 1.5 9.64 4.46.88 1.31.89 3.06 1.8 4.34a4.49 4.49 0 005.66 1 7.13 7.13 0 003.34-5.09 19.07 19.07 0 00-.17-6.26 34.52 34.52 0 00-3.33-11.84C697 188 683.11 179 674.77 181.32"
        fill="#2f2e41" />
    <path d="M648.89 430.19c-.11 0-.29-.37-.42-.88s-.12-.94 0-1 .29.38.42.89.11.96 0 .99z" fill="#fafafa" />
    <path fill="#2f2e41" d="M581.75 367.64h105.58v81.31H581.75z" />
    <path fill="#fff" d="M588.36 374.65h92.34v67.29h-92.34z" /> -->
    <!-- <path fill="#2f2e41"
        d="M629.15 426.75h40.25v4.3h-40.25zM642.04 422.45h4.3v-28.52h5.08l-7.03-12.89-7.82 12.11h5.47v29.3zM663.4 423.5h4.3v-28.53h5.08l-7.03-12.89-7.82 12.11h5.47v29.31zM599.493 433.898l14.835-14.594.968.984-14.835 14.593z" />
    <path fill="#2f2e41" d="M600 420.37l1.02-.929 13.283 14.588-1.02.93z" />
    <path d="M768 298l11.1 43.15a19 19 0 01-12.39 22.27l-60.27 26-11.76-17.9L750.73 336l-7.36-24.21z" fill="#f9b499" />
    <path
        d="M671.94 382.7s-6.35 4.4-8.05 5.41-3.67-2.47-1.92-4.33c1.23-1.3 5.65-5.18 8.17-7.39a5.26 5.26 0 014.13-1.23l12.22 1.58 21.15-13.55L718.82 384l-15.15 6.49s-3.63 3.73-5.31 4.32-8.1-.67-8.1-.67-7 8.91-10 6.88 2.15-8.38 2.15-8.38-7.08 8.67-9.64 6.61 2.93-9.89 2.93-9.89-3.86 3.84-6.21 5.95-5.3-1.56-4.63-2.54z"
        fill="#f9b499" /> -->
    <!-- <path
        d="M723.47 256.85s-7 13.51 1.63 36.44 25.61 42.63 25.61 42.63l-4.48-15.25s-17.63-25.19-18.08-46.25c-.46-20.24 1.9-18.55 1.9-18.55z"
        fill="#d1d3d4" /> -->
    <path fill="#bcbec0" d="M215.64 406.54h21.24v21.24h-21.24z" />
    <circle cx="236.07" cy="407.41" r="9.81" fill="#a7a9ac" />
    <path fill="#2f2e41"
        d="M240.36 430.98h17.49l-8.75-18.28-8.74 18.28zM345.69 113.37l11.22-78.21 65.61 45.45 17.12 133.76a9.28 9.28 0 01-7.29 10.25 9.27 9.27 0 01-11.11-7.89L408 113.37z" />
    <path
        d="M345.69 113.37l11.22-78.21 65.61 45.45 17.12 133.76a9.28 9.28 0 01-7.29 10.25 9.27 9.27 0 01-11.11-7.89L408 113.37z"
        opacity=".2" />
    <path d="M385.83 67.92L363.15 43a19.1 19.1 0 01.85-26.61 19.1 19.1 0 0127.4.86L411.21 39" fill="#2f2e41" />
    <path d="M385.83 67.92L363.15 43a19.1 19.1 0 01.85-26.61 19.1 19.1 0 0127.4.86L411.21 39" fill="#fff"
        opacity=".2" />
    <circle cx="408.95" cy="62.36" r="27" fill="#2f2e41" />
    <circle cx="375.21" cy="27.78" r="5.31" fill="#fff" />
    <circle cx="408.75" cy="62.31" r="9.05" fill="#fff" />
    <path d="M100.86 421.24s-5.79 143-14.58 192.47a6.1 6.1 0 01-1.28 2.71L79.22 623" fill="none" stroke="#263238"
        stroke-miterlimit="10" opacity=".2" />
    <!-- <path
        d="M139.27 285.54c.69.21 1.39.4 2.1.56a26.48 26.48 0 0120.46 23.19 23.2 23.2 0 010 4.41c-1.36 13.56-9.05 52-9.05 52l-5.14 26.91 26.43 35.72-16.53 14.56s-44-24.31-45-38.78-3.24-105.3-2.79-107.11c0 0 13.4-16.26 29.52-11.46z"
        fill="#0071f2" /> -->
    <!-- <path
        d="M139.27 285.54c.69.21 1.39.4 2.1.56a26.48 26.48 0 0120.46 23.19 23.2 23.2 0 010 4.41c-1.36 13.56-9.05 52-9.05 52l-5.14 26.91 26.43 35.72-16.53 14.56s-44-24.31-45-38.78-3.24-105.3-2.79-107.11c0 0 13.4-16.26 29.52-11.46z"
        opacity=".1" /> -->
    <!-- <path
        d="M147.49 437.41c.4.65 12.84 8.19 12.84 8.19s6.7 7.4 9.56 8.86 12.78 13.94 19.21 11.91l-.36-2.56-7.91-7.51s11.52 8 14.58 5c1.59-1.58.23-4.08.23-4.08a4.41 4.41 0 004.75-.61c2-1.94-1.73-4.83-1.73-4.83l-9.27-8.5S198.85 450 201 451s5.07-.77 2.9-4.15c-1.36-2.06-6.6-6.16-6.6-6.16s6.43-1.72 4.8-3.93-1-2.28-6.78-1.78-12.41-3.8-15.17-5a11.61 11.61 0 00-5-1l-9-13.09z"
        fill="#f5f5f5" /> -->
</svg>